<svg id="visual" viewBox="0 0 900 600" width="900px" height="600" xmlns="http://www.w3.org/2000/svg" xmlns:xlink="http://www.w3.org/1999/xlink" version="1.1"><path d="M289 600L307.8 580C326.7 560 364.3 520 404.5 480C444.7 440 487.3 400 484.8 360C482.3 320 434.7 280 425 240C415.3 200 443.7 160 470.3 120C497 80 522 40 534.5 20L547 0L900 0L900 20C900 40 900 80 900 120C900 160 900 200 900 240C900 280 900 320 900 360C900 400 900 440 900 480C900 520 900 560 900 580L900 600Z" fill="#99a9eb"></path></svg>