<svg id="visual" viewBox="0 0 900 600" width="900" height="600" xmlns="http://www.w3.org/2000/svg" xmlns:xlink="http://www.w3.org/1999/xlink" version="1.1"><rect x="0" y="0" width="900" height="600" fill="#001220"></rect><path d="M578 600L569 580C560 560 542 520 536.5 480C531 440 538 400 541.3 360C544.7 320 544.3 280 531.2 240C518 200 492 160 477.8 120C463.7 80 461.3 40 460.2 20L459 0L900 0L900 20C900 40 900 80 900 120C900 160 900 200 900 240C900 280 900 320 900 360C900 400 900 440 900 480C900 520 900 560 900 580L900 600Z" fill="#92a4f3"></path><path d="M555 600L560.2 580C565.3 560 575.7 520 593.8 480C612 440 638 400 644.2 360C650.3 320 636.7 280 622.7 240C608.7 200 594.3 160 603 120C611.7 80 643.3 40 659.2 20L675 0L900 0L900 20C900 40 900 80 900 120C900 160 900 200 900 240C900 280 900 320 900 360C900 400 900 440 900 480C900 520 900 560 900 580L900 600Z" fill="#617cea"></path><path d="M756 600L763.5 580C771 560 786 520 774.3 480C762.7 440 724.3 400 718.7 360C713 320 740 280 758.3 240C776.7 200 786.3 160 783.8 120C781.3 80 766.7 40 759.3 20L752 0L900 0L900 20C900 40 900 80 900 120C900 160 900 200 900 240C900 280 900 320 900 360C900 400 900 440 900 480C900 520 900 560 900 580L900 600Z" fill="#4557b1"></path></svg>