<svg id="visual" viewBox="0 0 900 450" width="900" height="450" xmlns="http://www.w3.org/2000/svg" xmlns:xlink="http://www.w3.org/1999/xlink" version="1.1"><g stroke-width="1" stroke-linejoin="bevel"><path d="M435 170L542 222L525 119Z" fill="#4db6ac" stroke="#4db6ac"></path><path d="M620 166L589 110L525 119Z" fill="#a7e0db" stroke="#a7e0db"></path><path d="M542 222L620 166L525 119Z" fill="#69c2b9" stroke="#69c2b9"></path><path d="M542 222L607 246L620 166Z" fill="#b3e7e1" stroke="#b3e7e1"></path><path d="M435 170L496 307L542 222Z" fill="#5cbcb3" stroke="#5cbcb3"></path><path d="M542 222L496 307L607 246Z" fill="#a7e0db" stroke="#a7e0db"></path><path d="M435 170L372 254L496 307Z" fill="#76c8c0" stroke="#76c8c0"></path><path d="M457 0L388 59L525 119Z" fill="#beede8" stroke="#beede8"></path><path d="M525 119L388 59L435 170Z" fill="#caf3ef" stroke="#caf3ef"></path><path d="M435 170L272 185L372 254Z" fill="#b3e7e1" stroke="#b3e7e1"></path><path d="M567 0L457 0L525 119Z" fill="#a7e0db" stroke="#a7e0db"></path><path d="M675 0L567 0L589 110Z" fill="#76c8c0" stroke="#76c8c0"></path><path d="M589 110L567 0L525 119Z" fill="#8fd4cd" stroke="#8fd4cd"></path><path d="M272 185L326 274L372 254Z" fill="#9bdad4" stroke="#9bdad4"></path><path d="M403 396L501 378L496 307Z" fill="#9bdad4" stroke="#9bdad4"></path><path d="M403 396L496 307L372 254Z" fill="#b3e7e1" stroke="#b3e7e1"></path><path d="M496 307L583 367L607 246Z" fill="#b3e7e1" stroke="#b3e7e1"></path><path d="M501 378L583 367L496 307Z" fill="#69c2b9" stroke="#69c2b9"></path><path d="M607 246L709 151L620 166Z" fill="#76c8c0" stroke="#76c8c0"></path><path d="M620 166L701 96L589 110Z" fill="#5cbcb3" stroke="#5cbcb3"></path><path d="M733 299L709 151L607 246Z" fill="#69c2b9" stroke="#69c2b9"></path><path d="M311 0L287 121L388 59Z" fill="#69c2b9" stroke="#69c2b9"></path><path d="M388 59L287 121L435 170Z" fill="#b3e7e1" stroke="#b3e7e1"></path><path d="M709 151L701 96L620 166Z" fill="#caf3ef" stroke="#caf3ef"></path><path d="M457 0L369 0L388 59Z" fill="#5cbcb3" stroke="#5cbcb3"></path><path d="M287 121L272 185L435 170Z" fill="#5cbcb3" stroke="#5cbcb3"></path><path d="M326 274L403 396L372 254Z" fill="#a7e0db" stroke="#a7e0db"></path><path d="M501 378L515 450L583 367Z" fill="#5cbcb3" stroke="#5cbcb3"></path><path d="M701 96L675 0L589 110Z" fill="#83cec6" stroke="#83cec6"></path><path d="M236 259L291 321L326 274Z" fill="#83cec6" stroke="#83cec6"></path><path d="M326 274L291 321L403 396Z" fill="#beede8" stroke="#beede8"></path><path d="M369 0L311 0L388 59Z" fill="#8fd4cd" stroke="#8fd4cd"></path><path d="M221 193L236 259L272 185Z" fill="#83cec6" stroke="#83cec6"></path><path d="M686 377L733 299L607 246Z" fill="#b3e7e1" stroke="#b3e7e1"></path><path d="M839 121L783 0L701 96Z" fill="#a7e0db" stroke="#a7e0db"></path><path d="M424 450L515 450L501 378Z" fill="#b3e7e1" stroke="#b3e7e1"></path><path d="M583 367L686 377L607 246Z" fill="#8fd4cd" stroke="#8fd4cd"></path><path d="M221 193L272 185L287 121Z" fill="#caf3ef" stroke="#caf3ef"></path><path d="M272 185L236 259L326 274Z" fill="#9bdad4" stroke="#9bdad4"></path><path d="M606 450L686 377L583 367Z" fill="#caf3ef" stroke="#caf3ef"></path><path d="M193 94L221 193L287 121Z" fill="#beede8" stroke="#beede8"></path><path d="M298 450L424 450L403 396Z" fill="#8fd4cd" stroke="#8fd4cd"></path><path d="M403 396L424 450L501 378Z" fill="#9bdad4" stroke="#9bdad4"></path><path d="M515 450L606 450L583 367Z" fill="#8fd4cd" stroke="#8fd4cd"></path><path d="M785 388L790 267L733 299Z" fill="#4db6ac" stroke="#4db6ac"></path><path d="M733 299L790 267L709 151Z" fill="#8fd4cd" stroke="#8fd4cd"></path><path d="M701 96L783 0L675 0Z" fill="#a7e0db" stroke="#a7e0db"></path><path d="M220 0L193 94L287 121Z" fill="#8fd4cd" stroke="#8fd4cd"></path><path d="M168 387L291 321L236 259Z" fill="#a7e0db" stroke="#a7e0db"></path><path d="M311 0L220 0L287 121Z" fill="#4db6ac" stroke="#4db6ac"></path><path d="M839 121L701 96L709 151Z" fill="#a7e0db" stroke="#a7e0db"></path><path d="M291 321L298 450L403 396Z" fill="#4db6ac" stroke="#4db6ac"></path><path d="M233 450L298 450L291 321Z" fill="#beede8" stroke="#beede8"></path><path d="M790 267L842 180L709 151Z" fill="#83cec6" stroke="#83cec6"></path><path d="M842 180L839 121L709 151Z" fill="#a7e0db" stroke="#a7e0db"></path><path d="M606 450L726 450L686 377Z" fill="#76c8c0" stroke="#76c8c0"></path><path d="M686 377L785 388L733 299Z" fill="#76c8c0" stroke="#76c8c0"></path><path d="M900 259L900 207L842 180Z" fill="#69c2b9" stroke="#69c2b9"></path><path d="M726 450L785 388L686 377Z" fill="#caf3ef" stroke="#caf3ef"></path><path d="M168 387L233 450L291 321Z" fill="#8fd4cd" stroke="#8fd4cd"></path><path d="M168 387L236 259L138 386Z" fill="#b3e7e1" stroke="#b3e7e1"></path><path d="M138 386L236 259L58 311Z" fill="#8fd4cd" stroke="#8fd4cd"></path><path d="M900 259L842 180L790 267Z" fill="#4db6ac" stroke="#4db6ac"></path><path d="M842 180L900 207L839 121Z" fill="#8fd4cd" stroke="#8fd4cd"></path><path d="M839 121L900 75L783 0Z" fill="#5cbcb3" stroke="#5cbcb3"></path><path d="M900 335L900 259L790 267Z" fill="#69c2b9" stroke="#69c2b9"></path><path d="M900 207L900 75L839 121Z" fill="#9bdad4" stroke="#9bdad4"></path><path d="M82 218L236 259L221 193Z" fill="#a7e0db" stroke="#a7e0db"></path><path d="M168 387L130 450L233 450Z" fill="#76c8c0" stroke="#76c8c0"></path><path d="M193 94L82 218L221 193Z" fill="#a7e0db" stroke="#a7e0db"></path><path d="M64 121L82 218L193 94Z" fill="#69c2b9" stroke="#69c2b9"></path><path d="M842 450L900 335L785 388Z" fill="#76c8c0" stroke="#76c8c0"></path><path d="M785 388L900 335L790 267Z" fill="#9bdad4" stroke="#9bdad4"></path><path d="M62 0L64 121L193 94Z" fill="#9bdad4" stroke="#9bdad4"></path><path d="M900 75L900 0L783 0Z" fill="#76c8c0" stroke="#76c8c0"></path><path d="M726 450L842 450L785 388Z" fill="#76c8c0" stroke="#76c8c0"></path><path d="M0 450L130 450L138 386Z" fill="#69c2b9" stroke="#69c2b9"></path><path d="M138 386L130 450L168 387Z" fill="#beede8" stroke="#beede8"></path><path d="M0 256L58 311L82 218Z" fill="#beede8" stroke="#beede8"></path><path d="M82 218L58 311L236 259Z" fill="#9bdad4" stroke="#9bdad4"></path><path d="M220 0L62 0L193 94Z" fill="#b3e7e1" stroke="#b3e7e1"></path><path d="M64 121L0 160L82 218Z" fill="#b3e7e1" stroke="#b3e7e1"></path><path d="M842 450L900 450L900 335Z" fill="#76c8c0" stroke="#76c8c0"></path><path d="M0 132L0 160L64 121Z" fill="#4db6ac" stroke="#4db6ac"></path><path d="M0 0L0 132L64 121Z" fill="#5cbcb3" stroke="#5cbcb3"></path><path d="M0 160L0 256L82 218Z" fill="#b3e7e1" stroke="#b3e7e1"></path><path d="M58 311L0 450L138 386Z" fill="#69c2b9" stroke="#69c2b9"></path><path d="M0 256L0 317L58 311Z" fill="#9bdad4" stroke="#9bdad4"></path><path d="M62 0L0 0L64 121Z" fill="#76c8c0" stroke="#76c8c0"></path><path d="M0 317L0 450L58 311Z" fill="#b3e7e1" stroke="#b3e7e1"></path></g></svg>