<svg id="visual" viewBox="0 0 960 540" width="960" height="540" xmlns="http://www.w3.org/2000/svg" xmlns:xlink="http://www.w3.org/1999/xlink" version="1.1"><g stroke-width="1" stroke-linejoin="bevel"><path d="M460.7 291L450.7 323L528.3 297Z" fill="#268089" stroke="#268089"></path><path d="M450.7 323L499.3 363L528.3 297Z" fill="#3da4a1" stroke="#3da4a1"></path><path d="M528.3 297L507.3 188L460.7 291Z" fill="#185d6c" stroke="#185d6c"></path><path d="M334 343L410.7 424L450.7 323Z" fill="#1e6e7b" stroke="#1e6e7b"></path><path d="M450.7 323L410.7 424L499.3 363Z" fill="#1e6e7b" stroke="#1e6e7b"></path><path d="M638 476L640 322L499.3 363Z" fill="#113c4c" stroke="#113c4c"></path><path d="M499.3 363L640 322L528.3 297Z" fill="#144c5c" stroke="#144c5c"></path><path d="M528.3 297L633 246L507.3 188Z" fill="#185d6c" stroke="#185d6c"></path><path d="M640 322L633 246L528.3 297Z" fill="#0d2d3c" stroke="#0d2d3c"></path><path d="M328 312L450.7 323L460.7 291Z" fill="#309196" stroke="#309196"></path><path d="M328 312L334 343L450.7 323Z" fill="#3da4a1" stroke="#3da4a1"></path><path d="M410.7 424L496.3 480L499.3 363Z" fill="#3da4a1" stroke="#3da4a1"></path><path d="M391.7 149L328 312L460.7 291Z" fill="#00101c" stroke="#00101c"></path><path d="M242.3 348L336 421L334 343Z" fill="#185d6c" stroke="#185d6c"></path><path d="M334 343L336 421L410.7 424Z" fill="#144c5c" stroke="#144c5c"></path><path d="M439.7 540L493.3 540L496.3 480Z" fill="#268089" stroke="#268089"></path><path d="M507.3 188L391.7 149L460.7 291Z" fill="#113c4c" stroke="#113c4c"></path><path d="M759.7 260L658 208L633 246Z" fill="#268089" stroke="#268089"></path><path d="M633 246L658 208L507.3 188Z" fill="#268089" stroke="#268089"></path><path d="M507.3 188L431.7 120L391.7 149Z" fill="#1e6e7b" stroke="#1e6e7b"></path><path d="M536.3 72L431.7 120L507.3 188Z" fill="#113c4c" stroke="#113c4c"></path><path d="M496.3 480L638 476L499.3 363Z" fill="#1e6e7b" stroke="#1e6e7b"></path><path d="M759.7 260L703.7 173L658 208Z" fill="#144c5c" stroke="#144c5c"></path><path d="M439.7 540L496.3 480L410.7 424Z" fill="#309196" stroke="#309196"></path><path d="M496.3 480L493.3 540L638 476Z" fill="#3da4a1" stroke="#3da4a1"></path><path d="M350 540L439.7 540L410.7 424Z" fill="#3da4a1" stroke="#3da4a1"></path><path d="M391.7 149L293 198L328 312Z" fill="#185d6c" stroke="#185d6c"></path><path d="M328 312L242.3 348L334 343Z" fill="#091f2c" stroke="#091f2c"></path><path d="M362 89L293 198L391.7 149Z" fill="#1e6e7b" stroke="#1e6e7b"></path><path d="M658 208L536.3 72L507.3 188Z" fill="#1e6e7b" stroke="#1e6e7b"></path><path d="M194.3 268L242.3 348L328 312Z" fill="#185d6c" stroke="#185d6c"></path><path d="M336 421L350 540L410.7 424Z" fill="#268089" stroke="#268089"></path><path d="M759.7 260L633 246L640 322Z" fill="#185d6c" stroke="#185d6c"></path><path d="M658 208L664 81L536.3 72Z" fill="#268089" stroke="#268089"></path><path d="M212.3 452L350 540L336 421Z" fill="#091f2c" stroke="#091f2c"></path><path d="M644 540L721.7 448L638 476Z" fill="#00101c" stroke="#00101c"></path><path d="M638 476L721.7 448L640 322Z" fill="#3da4a1" stroke="#3da4a1"></path><path d="M415.7 0L362 89L431.7 120Z" fill="#3da4a1" stroke="#3da4a1"></path><path d="M431.7 120L362 89L391.7 149Z" fill="#144c5c" stroke="#144c5c"></path><path d="M493.3 540L644 540L638 476Z" fill="#268089" stroke="#268089"></path><path d="M721.7 448L760.7 332L640 322Z" fill="#00101c" stroke="#00101c"></path><path d="M760.7 332L759.7 260L640 322Z" fill="#0d2d3c" stroke="#0d2d3c"></path><path d="M715.7 98L664 81L703.7 173Z" fill="#268089" stroke="#268089"></path><path d="M703.7 173L664 81L658 208Z" fill="#113c4c" stroke="#113c4c"></path><path d="M248.3 61L224.3 195L293 198Z" fill="#113c4c" stroke="#113c4c"></path><path d="M293 198L194.3 268L328 312Z" fill="#1e6e7b" stroke="#1e6e7b"></path><path d="M224.3 195L194.3 268L293 198Z" fill="#00101c" stroke="#00101c"></path><path d="M242.3 348L212.3 452L336 421Z" fill="#144c5c" stroke="#144c5c"></path><path d="M79.7 364L212.3 452L242.3 348Z" fill="#4db6ac" stroke="#4db6ac"></path><path d="M857.3 212L715.7 98L703.7 173Z" fill="#1e6e7b" stroke="#1e6e7b"></path><path d="M664 81L544.3 0L536.3 72Z" fill="#4db6ac" stroke="#4db6ac"></path><path d="M536.3 72L415.7 0L431.7 120Z" fill="#3da4a1" stroke="#3da4a1"></path><path d="M682 0L544.3 0L664 81Z" fill="#113c4c" stroke="#113c4c"></path><path d="M544.3 0L415.7 0L536.3 72Z" fill="#185d6c" stroke="#185d6c"></path><path d="M362 89L248.3 61L293 198Z" fill="#309196" stroke="#309196"></path><path d="M760.7 332L821.3 276L759.7 260Z" fill="#309196" stroke="#309196"></path><path d="M759.7 260L857.3 212L703.7 173Z" fill="#00101c" stroke="#00101c"></path><path d="M721.7 448L813.3 402L760.7 332Z" fill="#309196" stroke="#309196"></path><path d="M832.3 437L813.3 402L721.7 448Z" fill="#091f2c" stroke="#091f2c"></path><path d="M813.3 402L821.3 276L760.7 332Z" fill="#309196" stroke="#309196"></path><path d="M70.7 156L140.7 294L194.3 268Z" fill="#144c5c" stroke="#144c5c"></path><path d="M194.3 268L140.7 294L242.3 348Z" fill="#091f2c" stroke="#091f2c"></path><path d="M65.7 540L215.3 540L212.3 452Z" fill="#268089" stroke="#268089"></path><path d="M212.3 452L215.3 540L350 540Z" fill="#1e6e7b" stroke="#1e6e7b"></path><path d="M333 0L248.3 61L362 89Z" fill="#091f2c" stroke="#091f2c"></path><path d="M224.3 195L70.7 156L194.3 268Z" fill="#144c5c" stroke="#144c5c"></path><path d="M415.7 0L333 0L362 89Z" fill="#268089" stroke="#268089"></path><path d="M788.7 540L832.3 437L721.7 448Z" fill="#113c4c" stroke="#113c4c"></path><path d="M813.3 402L960 318L821.3 276Z" fill="#185d6c" stroke="#185d6c"></path><path d="M644 540L788.7 540L721.7 448Z" fill="#4db6ac" stroke="#4db6ac"></path><path d="M720.7 0L664 81L715.7 98Z" fill="#113c4c" stroke="#113c4c"></path><path d="M720.7 0L682 0L664 81Z" fill="#00101c" stroke="#00101c"></path><path d="M821.3 276L857.3 212L759.7 260Z" fill="#268089" stroke="#268089"></path><path d="M960 274L857.3 212L821.3 276Z" fill="#0d2d3c" stroke="#0d2d3c"></path><path d="M788.7 540L813.3 540L832.3 437Z" fill="#0d2d3c" stroke="#0d2d3c"></path><path d="M866.3 55L720.7 0L715.7 98Z" fill="#144c5c" stroke="#144c5c"></path><path d="M140.7 294L79.7 364L242.3 348Z" fill="#00101c" stroke="#00101c"></path><path d="M0 317L79.7 364L0 304Z" fill="#309196" stroke="#309196"></path><path d="M79.7 364L65.7 426L212.3 452Z" fill="#185d6c" stroke="#185d6c"></path><path d="M333 0L179.3 0L248.3 61Z" fill="#268089" stroke="#268089"></path><path d="M82.7 57L70.7 156L224.3 195Z" fill="#185d6c" stroke="#185d6c"></path><path d="M82.7 57L224.3 195L248.3 61Z" fill="#00101c" stroke="#00101c"></path><path d="M79.7 364L0 317L65.7 426Z" fill="#185d6c" stroke="#185d6c"></path><path d="M857.3 212L866.3 55L715.7 98Z" fill="#4db6ac" stroke="#4db6ac"></path><path d="M960 448L960 318L832.3 437Z" fill="#091f2c" stroke="#091f2c"></path><path d="M832.3 437L960 318L813.3 402Z" fill="#0d2d3c" stroke="#0d2d3c"></path><path d="M857.3 212L960 143L866.3 55Z" fill="#4db6ac" stroke="#4db6ac"></path><path d="M960 318L960 274L821.3 276Z" fill="#00101c" stroke="#00101c"></path><path d="M65.7 426L65.7 540L212.3 452Z" fill="#144c5c" stroke="#144c5c"></path><path d="M960 0L858.3 0L866.3 55Z" fill="#144c5c" stroke="#144c5c"></path><path d="M866.3 55L858.3 0L720.7 0Z" fill="#3da4a1" stroke="#3da4a1"></path><path d="M960 540L960 448L832.3 437Z" fill="#4db6ac" stroke="#4db6ac"></path><path d="M179.3 0L82.7 57L248.3 61Z" fill="#1e6e7b" stroke="#1e6e7b"></path><path d="M0 304L140.7 294L70.7 156Z" fill="#4db6ac" stroke="#4db6ac"></path><path d="M0 304L79.7 364L140.7 294Z" fill="#309196" stroke="#309196"></path><path d="M65.7 426L0 455L65.7 540Z" fill="#0d2d3c" stroke="#0d2d3c"></path><path d="M0 173L0 304L70.7 156Z" fill="#3da4a1" stroke="#3da4a1"></path><path d="M179.3 0L107.7 0L82.7 57Z" fill="#268089" stroke="#268089"></path><path d="M960 274L960 143L857.3 212Z" fill="#1e6e7b" stroke="#1e6e7b"></path><path d="M0 317L0 455L65.7 426Z" fill="#113c4c" stroke="#113c4c"></path><path d="M0 79L70.7 156L82.7 57Z" fill="#185d6c" stroke="#185d6c"></path><path d="M0 79L0 173L70.7 156Z" fill="#0d2d3c" stroke="#0d2d3c"></path><path d="M960 143L960 101L866.3 55Z" fill="#268089" stroke="#268089"></path><path d="M813.3 540L960 540L832.3 437Z" fill="#309196" stroke="#309196"></path><path d="M0 455L0 540L65.7 540Z" fill="#00101c" stroke="#00101c"></path><path d="M0 0L0 79L82.7 57Z" fill="#144c5c" stroke="#144c5c"></path><path d="M960 101L960 0L866.3 55Z" fill="#091f2c" stroke="#091f2c"></path><path d="M107.7 0L0 0L82.7 57Z" fill="#0d2d3c" stroke="#0d2d3c"></path></g></svg>