<!DOCTYPE svg PUBLIC "-//W3C//DTD SVG 1.1//EN" "http://www.w3.org/Graphics/SVG/1.1/DTD/svg11.dtd">
<!-- Uploaded to: SVG Repo, www.svgrepo.com, Transformed by: SVG Repo Mixer Tools -->
<svg width="800px" height="800px" viewBox="0 0 512 512" xmlns="http://www.w3.org/2000/svg" fill="#ffffff" transform="matrix(1, 0, 0, -1, 0, 0)" stroke="#ffffff">
<g id="SVGRepo_bgCarrier" stroke-width="0"/>
<g id="SVGRepo_tracerCarrier" stroke-linecap="round" stroke-linejoin="round"/>
<g id="SVGRepo_iconCarrier">
<path fill="#ffffff" d="M25.01 49v46H103V49zM153 49v46h78V49zm128 0v46h78V49zm128 0v46h78V49zM55.01 113v64H119v46h18v-46h64v-64h-18v46H73.01v-46zM311 113v64h64v46h18v-46h64v-64h-18v46H329v-46zM89.01 241v46H167v-46zM345 241v46h78v-46zm-226 64v48h128v46h18v-46h128v-48h-18v30H137v-30zm98 112v46h78v-46z"/>
</g>
</svg>