<!DOCTYPE svg PUBLIC "-//W3C//DTD SVG 1.1//EN" "http://www.w3.org/Graphics/SVG/1.1/DTD/svg11.dtd">
<!-- Uploaded to: SVG Repo, www.svgrepo.com, Transformed by: SVG Repo Mixer Tools -->
<svg version="1.1" id="Uploaded to svgrepo.com" xmlns="http://www.w3.org/2000/svg" xmlns:xlink="http://www.w3.org/1999/xlink" width="800px" height="800px" viewBox="0 0 32 32" xml:space="preserve" fill="#ffffff" stroke="#ffffff">
<g id="SVGRepo_bgCarrier" stroke-width="0"/>
<g id="SVGRepo_tracerCarrier" stroke-linecap="round" stroke-linejoin="round"/>
<g id="SVGRepo_iconCarrier"> <style type="text/css"> .pictogram_een{fill:#4DB6ACF4D6B0;} .pictogram_twee{fill:#4DB6ACF8AD89;} .pictogram_vier{fill:#4DB6ACE54D2E;} .pictogram_zes{fill:#4DB6AC;} .st0{fill:#4DB6ACF27261;} .st1{fill:#4DB6AC01A59C;} .st2{fill:none;} .st3{fill:#4DB6ACF8AD89;} .st4{clip-path:url(#4DB6ACSVGID_2_);fill:#4DB6AC01A59C;} .st5{clip-path:url(#4DB6ACSVGID_2_);fill:none;} .st6{clip-path:url(#4DB6ACSVGID_2_);fill:#4DB6AC;} .st7{fill:#4DB6AC;} </style> <g> <path class="pictogram_zes" d="M32,29c0,1.65-1.35,3-3,3H3c-1.65,0-3-1.35-3-3V3c0-1.65,1.35-3,3-3h26c1.65,0,3,1.35,3,3V29z"/> <path class="pictogram_twee" d="M27,10H5c-1.105,0-2-0.895-2-2V4c0-1.105,0.895-2,2-2h22c1.105,0,2,0.895,2,2v4 C29,9.105,28.105,10,27,10z"/> <path class="pictogram_vier" d="M27,20H5c-1.105,0-2-0.895-2-2v-4c0-1.105,0.895-2,2-2h22c1.105,0,2,0.895,2,2v4 C29,19.105,28.105,20,27,20z"/> <path class="pictogram_een" d="M27,30H5c-1.105,0-2-0.895-2-2v-4c0-1.105,0.895-2,2-2h22c1.105,0,2,0.895,2,2v4 C29,29.105,28.105,30,27,30z"/> </g> </g>
</svg>